<svg xmlns="http://www.w3.org/2000/svg" viewBox="0 0 320 180" fill="none" role="img" aria-label="Crow silhouette placeholder">
  <title>Crow silhouette placeholder</title>
  <!-- Line-art crow  replace with real photo at ./images/crow.jpg and update site.crow -->
  <path
    fill="#F2F2EF"
    fill-opacity="0.92"
    d="M38 118c18-28 42-46 78-52 8-22 28-38 52-42 6 14 4 28-2 40 22-2 44 6 62 22 14 12 24 28 28 46-18-6-36-8-54-4 8 10 12 22 10 36-16-8-34-10-52-6-4 14-14 24-28 28-18 6-38 2-52-10-16-14-24-34-20-54-8 4-14 12-18 22-6-8-8-18-4-26z"
  />
  <path
    stroke="#F2F2EF"
    stroke-opacity="0.55"
    stroke-width="1.25"
    d="M248 92c18 4 36 18 48 36M96 78c-12-18-8-36 6-48M132 128c-22 8-40 28-44 52"
  />
  <circle cx="214" cy="78" r="3.5" fill="#050505"/>
</svg>
